<?xml version="1.0" standalone="no"?>
<!DOCTYPE svg PUBLIC "-//W3C//DTD SVG 20010904//EN"
 "http://www.w3.org/TR/2001/REC-SVG-20010904/DTD/svg10.dtd">
<svg version="1.0" xmlns="http://www.w3.org/2000/svg"
 width="1280.000000pt" height="1280.000000pt" viewBox="0 0 1280.000000 1280.000000"
 preserveAspectRatio="xMidYMid meet">
<metadata>
Created by potrace 1.14, written by Peter Selinger 2001-2017
</metadata>
<g transform="translate(0.000000,1280.000000) scale(0.100000,-0.100000)"
fill="#000000" stroke="none">
<path d="M9475 9314 c-316 -23 -496 -56 -728 -135 -165 -56 -392 -158 -496
-223 -22 -14 -43 -26 -47 -26 -17 0 -443 -297 -474 -330 -3 -3 -32 -28 -65
-54 -143 -115 -346 -306 -566 -533 -102 -105 -182 -193 -359 -393 -41 -47 -79
-90 -85 -96 -5 -6 -28 -33 -50 -60 -22 -26 -47 -56 -56 -64 -8 -9 -96 -113
-194 -231 -99 -118 -185 -220 -192 -227 -6 -7 -29 -34 -50 -60 -21 -26 -40
-49 -43 -52 -3 -3 -30 -34 -60 -70 -30 -36 -57 -67 -60 -70 -3 -3 -30 -34 -60
-70 -30 -35 -59 -70 -65 -76 -53 -60 -139 -156 -162 -181 -15 -17 -64 -71
-108 -120 -364 -402 -616 -639 -916 -860 -322 -238 -651 -394 -984 -469 -89
-20 -307 -44 -405 -44 -243 0 -515 63 -740 172 -496 240 -841 705 -921 1243
-20 134 -18 378 5 505 55 308 210 608 429 832 88 91 236 210 317 258 131 76
260 129 400 163 115 28 391 30 525 3 93 -19 267 -70 345 -102 52 -22 253 -123
290 -146 138 -87 329 -220 376 -263 6 -5 26 -21 44 -35 18 -14 38 -29 44 -35
35 -31 96 -75 105 -75 5 0 11 -4 13 -8 2 -5 57 -45 123 -90 146 -98 239 -164
430 -306 230 -169 334 -211 520 -210 128 0 217 20 318 69 75 38 177 112 215
157 14 17 31 35 37 42 49 51 106 172 136 289 36 140 12 342 -59 482 -13 28
-27 52 -31 55 -3 3 -19 24 -35 47 -45 66 -121 133 -251 218 -120 78 -253 162
-310 195 -16 10 -67 40 -113 69 -46 28 -85 51 -87 51 -1 0 -32 17 -66 38 -81
49 -162 94 -264 146 -44 23 -82 43 -85 46 -11 11 -483 250 -494 250 -2 0 -37
15 -78 34 -40 18 -113 50 -163 71 -49 20 -103 43 -120 50 -34 14 -265 95 -340
119 -113 35 -300 76 -420 92 -227 29 -447 16 -700 -42 -38 -8 -81 -18 -95 -21
-48 -10 -215 -65 -224 -74 -6 -5 -20 -9 -32 -9 -13 0 -26 -4 -29 -10 -3 -5
-13 -10 -21 -10 -24 0 -301 -138 -398 -198 -50 -32 -98 -61 -107 -67 -171
-106 -490 -400 -599 -555 -14 -19 -33 -43 -43 -55 -18 -19 -127 -179 -137
-200 -3 -5 -18 -30 -34 -54 -39 -61 -146 -285 -190 -399 -37 -95 -81 -242
-110 -369 -38 -168 -49 -270 -53 -518 -5 -268 8 -409 57 -626 30 -131 103
-352 150 -454 22 -48 40 -89 40 -92 0 -7 120 -222 132 -238 5 -5 29 -41 54
-80 87 -132 204 -272 336 -401 119 -116 300 -262 398 -321 107 -65 232 -135
271 -151 24 -11 64 -29 89 -40 78 -36 215 -86 305 -110 281 -76 421 -95 695
-95 276 0 448 25 750 107 168 45 470 177 659 289 143 84 358 234 436 304 12
10 41 34 65 53 25 19 61 49 80 66 19 18 46 42 60 54 85 73 340 334 470 480
116 131 394 472 480 590 19 26 58 77 85 113 47 61 115 153 297 406 42 58 97
133 121 166 24 33 97 134 163 225 65 91 122 170 127 175 4 6 51 69 105 140
167 222 374 485 427 541 5 6 30 36 55 65 224 268 530 563 755 730 33 24 62 46
65 49 18 18 181 122 269 172 261 147 517 237 811 284 200 31 252 35 485 36
213 0 256 -3 385 -26 286 -50 519 -123 781 -247 121 -57 374 -196 424 -234 35
-25 75 -48 75 -41 0 17 -328 245 -460 320 -63 35 -285 146 -363 181 -67 29
-199 76 -287 101 -47 13 -98 28 -115 33 -157 50 -613 91 -830 75z"/>
<path d="M9665 8789 c-92 -11 -205 -26 -230 -32 -11 -3 -47 -11 -80 -17 -33
-7 -71 -16 -85 -20 -14 -4 -59 -18 -100 -30 -99 -30 -174 -56 -280 -100 -59
-24 -302 -142 -310 -150 -3 -3 -18 -12 -35 -20 -16 -8 -70 -40 -118 -72 -48
-32 -92 -58 -97 -58 -6 0 -10 -4 -10 -10 0 -5 -4 -10 -10 -10 -8 0 -206 -145
-236 -174 -7 -6 -29 -25 -50 -43 -136 -110 -354 -316 -354 -333 0 -6 -4 -10
-10 -10 -8 0 -38 -30 -165 -165 -16 -18 -49 -55 -72 -83 -24 -27 -55 -63 -70
-80 -36 -38 -122 -139 -173 -202 -11 -14 -30 -36 -41 -50 -11 -14 -30 -38 -42
-53 -12 -15 -29 -37 -37 -47 -8 -10 -26 -34 -40 -52 -14 -17 -46 -59 -72 -93
-55 -69 -67 -85 -88 -115 -8 -12 -64 -88 -125 -170 -60 -81 -117 -158 -125
-170 -8 -12 -20 -28 -25 -34 -12 -13 -22 -27 -90 -128 -27 -40 -60 -84 -72
-98 -13 -14 -23 -28 -23 -31 0 -3 -8 -15 -17 -27 -10 -11 -25 -30 -33 -42 -8
-12 -51 -71 -95 -131 -44 -60 -118 -161 -165 -224 -47 -64 -92 -124 -100 -133
-8 -9 -28 -37 -45 -62 -16 -24 -37 -51 -45 -60 -8 -9 -24 -28 -35 -44 -11 -15
-28 -37 -38 -49 -10 -12 -28 -35 -40 -50 -12 -16 -33 -41 -47 -57 -14 -16 -36
-43 -50 -61 -14 -18 -30 -37 -35 -43 -6 -6 -30 -36 -55 -66 -25 -30 -49 -60
-55 -67 -119 -136 -156 -176 -294 -318 -54 -55 -135 -134 -180 -175 -167 -151
-189 -170 -231 -200 -19 -13 -37 -27 -40 -30 -3 -4 -32 -25 -65 -47 -33 -23
-69 -49 -80 -60 -11 -10 -31 -24 -45 -31 -28 -14 -46 -25 -105 -62 -97 -60
-361 -190 -388 -190 -8 0 -32 -7 -53 -16 -22 -9 -52 -20 -69 -25 -16 -4 -61
-17 -98 -28 -209 -61 -541 -97 -817 -87 -212 7 -287 15 -420 46 -52 12 -113
25 -135 30 -68 14 -269 80 -282 94 -3 3 -17 6 -29 6 -13 0 -25 4 -29 9 -3 5
-22 15 -43 22 -48 15 -326 151 -330 161 -2 4 -12 8 -22 8 -9 0 -23 6 -30 14
-6 8 -44 31 -83 51 -40 20 -74 40 -77 43 -3 4 -21 16 -40 26 -19 11 -41 26
-48 33 -7 7 -18 13 -24 13 -5 0 13 -18 41 -40 28 -22 55 -40 61 -40 5 0 10 -4
10 -10 0 -5 28 -28 63 -51 34 -24 64 -46 65 -51 2 -4 10 -8 18 -8 8 0 14 -4
14 -10 0 -5 7 -10 15 -10 8 0 15 -4 15 -8 0 -7 26 -23 130 -78 19 -11 37 -21
40 -24 5 -5 35 -22 73 -42 12 -6 29 -15 37 -19 19 -11 173 -85 225 -108 93
-43 125 -55 325 -119 93 -30 320 -77 430 -89 104 -11 584 -13 665 -3 217 28
382 61 459 91 27 10 58 19 70 19 12 0 26 4 31 8 6 5 30 15 55 22 25 8 65 22
90 33 25 11 61 26 80 34 19 8 85 40 145 71 61 31 120 60 132 66 13 6 23 14 23
19 0 4 5 7 11 7 6 0 31 14 56 30 24 17 46 30 49 30 7 0 96 61 112 77 7 7 17
13 21 13 7 0 31 18 71 52 8 8 28 20 43 28 16 8 41 27 58 42 16 15 32 28 37 28
4 0 15 8 24 18 21 22 66 61 108 92 18 14 45 36 61 50 15 14 51 45 80 70 69 60
456 447 539 539 36 40 81 90 100 110 19 21 55 62 80 91 25 29 61 71 80 93 19
22 43 49 53 61 44 52 105 122 140 160 20 22 37 45 37 49 0 5 12 21 28 36 15
15 36 38 47 52 11 13 45 54 75 89 30 36 58 69 62 75 5 5 20 24 35 41 52 58
113 129 139 161 14 17 42 49 62 71 20 22 53 59 72 82 19 23 42 50 51 59 9 9
54 59 100 112 75 87 279 313 399 443 136 149 387 406 396 406 3 0 22 15 42 34
50 47 73 66 112 96 18 14 44 35 59 48 26 23 160 124 201 152 12 8 33 23 45 33
13 9 28 17 34 17 6 0 11 5 11 10 0 6 7 10 15 10 8 0 15 5 15 10 0 6 6 10 13
10 7 0 28 13 47 30 19 16 40 29 47 30 7 0 34 14 60 30 26 17 52 30 59 30 7 0
14 3 16 8 3 7 67 39 126 64 17 7 32 16 32 20 0 5 8 8 19 8 20 0 120 38 135 52
6 4 21 8 34 8 13 0 32 5 42 10 23 12 114 33 280 65 216 41 545 30 725 -25 186
-57 248 -80 345 -130 196 -101 322 -199 515 -401 9 -9 40 -49 70 -90 30 -41
58 -79 62 -85 13 -17 93 -161 113 -204 25 -51 54 -119 60 -140 122 -388 126
-696 14 -1035 -67 -205 -159 -370 -294 -530 -52 -62 -213 -215 -226 -215 -8 0
-14 -4 -14 -8 0 -4 -13 -16 -30 -25 -16 -10 -35 -23 -43 -30 -14 -13 -39 -28
-99 -61 -21 -11 -38 -23 -38 -28 0 -4 -6 -8 -14 -8 -8 0 -34 -10 -58 -21 -40
-20 -60 -29 -115 -50 -13 -5 -33 -13 -45 -18 -13 -5 -34 -12 -48 -14 -14 -3
-50 -12 -80 -20 -130 -34 -195 -41 -277 -28 -153 24 -304 62 -327 83 -6 4 -23
8 -38 8 -15 0 -28 5 -28 10 0 6 -7 10 -15 10 -8 0 -23 4 -33 9 -9 5 -28 13
-42 18 -46 17 -185 85 -315 153 -89 46 -103 54 -160 90 -69 43 -99 60 -117 66
-10 4 -18 10 -18 15 0 5 -6 9 -13 9 -7 0 -23 9 -35 20 -12 11 -28 20 -36 20
-8 0 -16 4 -18 9 -1 5 -39 31 -83 59 -44 29 -98 65 -121 82 -23 16 -45 30 -51
30 -5 0 -18 8 -29 18 -30 28 -111 82 -123 82 -6 0 -11 4 -11 8 0 5 -12 15 -27
23 -28 14 -53 32 -78 57 -8 6 -18 12 -23 12 -6 0 -12 4 -14 8 -1 5 -25 23 -53
42 -27 18 -52 36 -55 40 -3 3 -21 17 -40 30 -19 13 -37 27 -40 30 -3 3 -27 21
-55 39 -27 19 -52 38 -55 41 -11 14 -128 87 -170 107 -75 34 -100 43 -125 43
-13 0 -26 4 -29 9 -3 5 -56 9 -118 10 -220 3 -391 -60 -531 -193 -42 -41 -137
-174 -137 -192 0 -7 -6 -19 -12 -26 -41 -43 -72 -208 -65 -348 11 -223 108
-397 304 -548 23 -18 44 -32 48 -32 3 0 46 -27 96 -60 50 -33 94 -60 99 -60 5
0 10 -3 12 -7 3 -8 105 -73 114 -73 3 0 32 -18 64 -40 32 -22 64 -40 69 -40 6
0 11 -4 11 -9 0 -5 8 -11 18 -14 19 -7 94 -50 134 -78 14 -11 28 -19 31 -19 2
0 37 -19 78 -41 41 -23 108 -60 149 -82 41 -22 102 -54 135 -72 58 -31 242
-124 410 -206 44 -22 86 -39 93 -39 6 0 12 -4 12 -10 0 -5 6 -10 13 -10 8 0
27 -6 43 -14 16 -8 45 -20 64 -28 79 -33 146 -61 168 -69 29 -12 67 -27 95
-38 12 -5 40 -15 62 -22 22 -7 44 -17 49 -21 6 -4 20 -8 33 -8 12 0 32 -4 45
-9 13 -5 43 -15 68 -22 25 -7 50 -16 55 -20 6 -3 24 -9 40 -12 17 -3 50 -11
75 -17 398 -95 728 -78 1170 59 126 39 194 64 198 74 2 4 10 7 17 7 7 0 26 7
42 15 15 8 66 33 113 55 90 43 158 80 202 111 14 11 30 19 36 19 5 0 15 7 22
15 7 9 27 22 44 30 17 8 45 27 61 41 17 14 42 33 58 42 15 9 27 20 27 24 0 4
5 8 11 8 7 0 19 8 28 18 9 9 45 42 81 72 165 139 346 346 475 540 17 25 32 47
35 50 5 5 39 67 69 125 9 16 19 32 22 35 6 5 61 119 103 213 28 61 96 256 117
335 112 414 117 916 15 1330 -94 376 -276 734 -526 1032 -55 65 -227 238 -299
300 -29 25 -58 50 -64 55 -7 6 -28 22 -47 35 -19 13 -44 32 -54 42 -11 10 -24
18 -28 18 -5 0 -18 9 -30 20 -11 10 -36 26 -54 35 -18 8 -39 21 -46 28 -7 6
-31 21 -53 33 -22 11 -56 30 -76 42 -34 19 -52 28 -99 52 -11 6 -27 10 -35 10
-8 0 -15 5 -15 10 0 6 -6 10 -14 10 -12 0 -44 14 -118 51 -10 5 -27 9 -37 9
-11 0 -23 5 -26 10 -3 6 -17 10 -30 10 -13 0 -26 4 -29 9 -3 5 -16 11 -28 14
-13 3 -41 11 -63 17 -70 19 -169 40 -192 40 -13 0 -23 4 -23 9 0 4 -30 11 -67
15 -38 3 -108 10 -158 15 -106 11 -411 11 -510 0z"/>
</g>
</svg>
